<svg version="1.1" id="Layer_1" xmlns="http://www.w3.org/2000/svg" xmlns:xlink="http://www.w3.org/1999/xlink" x="0px" y="0px"
	 width="100%" viewBox="0 0 600 600" enable-background="new 0 0 600 600" xml:space="preserve">
<path fill="#000000" opacity="1.000000" stroke="none" 
	d="
M335.000000,0.999996 
	C423.593719,1.000000 512.187439,1.000000 601.000000,1.000000 
	C601.000000,89.354111 601.000000,177.708389 600.664307,266.872559 
	C599.898743,267.015259 599.187622,266.389465 599.082520,265.674561 
	C597.997253,258.294373 597.510986,250.787109 595.879883,243.535187 
	C593.333679,232.214828 590.030090,221.064850 587.023499,209.630539 
	C586.999573,209.418411 586.858521,209.015411 586.932861,208.688538 
	C586.687195,207.858124 586.367188,207.354584 586.018127,206.471207 
	C585.660339,205.191513 585.364136,204.278152 584.997864,203.393860 
	C580.372070,192.225540 575.736267,181.061386 571.064453,169.529724 
	C565.006592,158.712189 559.511292,147.911301 552.829041,137.902863 
	C545.301453,126.628242 536.704651,116.067490 528.371704,104.934860 
	C525.792419,102.058083 523.414185,99.442673 520.908081,96.524078 
	C509.116028,85.570282 497.944855,74.303795 485.640198,64.453171 
	C474.711823,55.704361 462.525787,48.526531 450.647705,40.368416 
	C449.006744,39.274048 447.640106,38.414875 446.215118,37.666847 
	C428.013336,28.112274 409.390228,19.611525 389.576660,13.823679 
	C372.450012,8.820728 355.215607,4.534704 337.391693,2.922942 
	C336.543457,2.846236 335.794952,1.666207 335.000000,0.999996 
z"/>
<path fill="#000000" opacity="1.000000" stroke="none" 
	d="
M601.000000,330.000000 
	C601.000000,420.259705 601.000000,510.519409 601.000000,601.000000 
	C512.645874,601.000000 424.291595,601.000000 335.308105,600.591736 
	C335.686584,599.793030 336.663086,599.215088 337.706848,599.041382 
	C347.174438,597.465759 356.729767,596.323608 366.113983,594.359741 
	C385.889252,590.221313 405.020355,583.869019 423.469513,575.682007 
	C431.585876,572.080139 439.202301,567.351685 447.408356,563.072021 
	C457.004761,557.300171 466.755585,552.269043 475.346313,545.716919 
	C487.042725,536.796082 497.853516,526.714050 509.391541,517.070251 
	C511.008331,516.001343 512.443298,515.142517 513.519226,513.957703 
	C519.044128,507.873749 524.808533,501.965912 529.866638,495.508850 
	C538.193726,484.878693 546.042664,473.874084 554.395935,462.857086 
	C562.573242,447.431000 570.447754,432.175171 578.591309,416.709961 
	C580.503784,411.402557 582.147034,406.304504 584.000000,401.011597 
	C585.484070,396.923462 586.758484,393.030212 588.350037,388.908356 
	C590.404663,381.457458 592.142151,374.235168 594.063477,366.667236 
	C594.781494,363.174469 595.315613,360.027313 596.033081,356.519958 
	C596.443115,355.746857 596.830261,355.349609 596.872375,354.918671 
	C597.608948,347.379150 598.248718,339.829468 599.083984,332.301331 
	C599.175781,331.473541 600.335571,330.764252 601.000000,330.000000 
z"/>
<path fill="#000000" opacity="1.000000" stroke="none" 
	d="
M1.000002,267.000000 
	C1.000000,178.406296 1.000000,89.812592 1.000000,1.000000 
	C89.354111,1.000000 177.708389,1.000000 266.864929,1.343642 
	C266.828430,2.122587 266.031219,2.807658 265.144592,2.955080 
	C254.744492,4.684385 244.212250,5.802724 233.942993,8.101329 
	C201.872330,15.279818 171.713562,27.315622 143.566010,45.096123 
	C125.762535,56.064644 109.095505,67.938797 94.571808,83.092140 
	C87.385231,90.423271 80.403610,97.524483 73.677383,104.859879 
	C70.180138,108.673851 67.133881,112.901367 63.567398,117.075302 
	C62.561779,117.919106 61.734619,118.539726 61.204254,119.353722 
	C53.197929,131.641800 44.693642,143.648438 37.428112,156.362244 
	C31.857759,166.109695 27.862131,176.757065 23.007067,187.340256 
	C21.054123,192.135849 18.889170,196.486221 17.539330,201.076324 
	C14.147100,212.611496 11.123147,224.254990 7.645070,235.982468 
	C7.274066,236.738632 7.209521,237.367386 7.076324,238.349548 
	C6.990272,239.422501 6.972873,240.142029 6.592635,241.063248 
	C5.141870,249.385666 4.087427,257.511322 2.890969,265.616028 
	C2.810874,266.158600 1.655342,266.542389 1.000002,267.000000 
z"/>
<path fill="#000000" opacity="1.000000" stroke="none" 
	d="
M267.000000,601.000000 
	C178.406433,601.000000 89.812866,601.000000 1.000000,601.000000 
	C1.000000,512.979248 1.000000,424.958282 1.338120,336.138336 
	C2.129944,336.817902 2.696555,338.272583 3.015074,339.779694 
	C3.803075,343.508240 4.477502,347.260742 5.129597,351.426819 
	C6.719287,359.949677 7.738124,368.247314 10.173338,376.105988 
	C14.649328,390.550476 19.959164,404.736542 24.960567,419.407959 
	C25.685352,421.593658 26.230721,423.470551 27.078308,425.199219 
	C35.750301,442.885590 44.803337,460.352997 57.035080,476.352661 
	C62.673225,483.539154 67.786156,490.767914 73.766312,497.189026 
	C83.547302,507.691132 93.892853,517.667480 104.309387,528.009460 
	C120.961655,543.305420 139.400497,555.437256 159.329590,566.047852 
	C166.934418,569.755615 174.090103,573.592163 181.515991,576.804016 
	C208.125656,588.312988 235.756180,596.110779 264.676331,599.077881 
	C265.507874,599.163147 266.227966,600.334839 267.000000,601.000000 
z"/>
<path fill="#42C7FF" opacity="1.000000" stroke="none" 
	d="
M587.047424,209.842667 
	C590.030090,221.064850 593.333679,232.214828 595.879883,243.535187 
	C597.510986,250.787109 597.997253,258.294373 599.082520,265.674561 
	C599.187622,266.389465 599.898743,267.015259 600.664307,267.341187 
	C601.000000,268.066681 601.000000,269.133331 600.603210,270.601990 
	C595.324219,270.335968 590.440796,269.098083 585.559998,269.107910 
	C571.446899,269.136261 557.336304,269.803040 543.221863,269.962555 
	C528.414429,270.129944 513.603699,269.992065 498.794373,270.002869 
	C489.310303,270.009766 479.734070,269.216064 470.363556,270.258698 
	C455.959595,271.861389 441.959259,271.166229 427.990417,266.596405 
	C425.559265,258.490753 423.255066,250.750748 420.983643,242.612183 
	C419.611572,237.327972 418.359131,232.392090 416.768585,227.567688 
	C413.888458,218.831757 410.806671,210.162308 408.000061,201.230530 
	C410.366211,203.175720 412.931244,205.090408 414.632477,207.592453 
	C417.815857,212.274338 421.625946,214.336853 427.523285,214.125504 
	C446.282013,213.453217 465.059509,213.248581 483.831665,213.018738 
	C516.578491,212.617767 549.326782,212.333847 582.074402,211.993561 
	C583.069336,211.983231 584.164185,212.131302 585.028625,211.768082 
	C585.829834,211.431427 586.384277,210.507812 587.047424,209.842667 
z"/>
<path fill="#1BB0FF" opacity="1.000000" stroke="none" 
	d="
M143.886841,44.956116 
	C171.713562,27.315622 201.872330,15.279818 233.942993,8.101329 
	C244.212250,5.802724 254.744492,4.684385 265.144592,2.955080 
	C266.031219,2.807658 266.828430,2.122587 267.333588,1.343642 
	C289.354218,1.000000 311.708466,1.000000 334.531342,0.999996 
	C335.794952,1.666207 336.543457,2.846236 337.391693,2.922942 
	C355.215607,4.534704 372.450012,8.820728 389.576660,13.823679 
	C409.390228,19.611525 428.013336,28.112274 446.215118,37.666847 
	C447.640106,38.414875 449.006744,39.274048 450.212402,40.472244 
	C443.452576,41.241455 436.884125,41.868011 430.308472,41.956409 
	C398.523346,42.383698 366.736755,42.736603 334.949677,42.984047 
	C284.339661,43.378021 233.728806,43.661858 183.118546,44.024277 
	C181.304031,44.037270 179.494095,44.533157 177.678360,44.560650 
	C166.415100,44.731190 155.150803,44.832096 143.886841,44.956116 
z"/>
<path fill="#31A9B3" opacity="1.000000" stroke="none" 
	d="
M267.468658,601.000000 
	C266.227966,600.334839 265.507874,599.163147 264.676331,599.077881 
	C235.756180,596.110779 208.125656,588.312988 181.515991,576.804016 
	C174.090103,573.592163 166.934418,569.755615 159.357697,565.658875 
	C160.654633,564.076477 162.215942,562.200256 163.847717,562.136780 
	C178.291428,561.575195 192.747742,561.338867 207.200134,560.998962 
	C220.986877,560.674805 234.772949,560.320374 248.560165,560.018066 
	C265.009888,559.657349 281.460785,559.349731 297.910706,558.996643 
	C312.530060,558.682922 327.148102,558.303467 341.767975,558.016602 
	C360.714752,557.644714 379.663574,557.377319 398.609894,556.984863 
	C410.566925,556.737244 422.519867,556.294556 434.476715,556.035950 
	C440.173492,555.912720 445.875092,556.014709 451.574524,556.014709 
	C451.669495,556.508423 451.764465,557.002136 451.859436,557.495850 
	C450.254883,559.375488 448.650299,561.255127 447.045746,563.134766 
	C439.202301,567.351685 431.585876,572.080139 423.469513,575.682007 
	C405.020355,583.869019 385.889252,590.221313 366.113983,594.359741 
	C356.729767,596.323608 347.174438,597.465759 337.706848,599.041382 
	C336.663086,599.215088 335.686584,599.793030 334.839447,600.591736 
	C312.645782,601.000000 290.291534,601.000000 267.468658,601.000000 
z"/>
<path fill="#4CCCFE" opacity="1.000000" stroke="none" 
	d="
M428.117340,266.962067 
	C441.959259,271.166229 455.959595,271.861389 470.363556,270.258698 
	C479.734070,269.216064 489.310303,270.009766 498.794373,270.002869 
	C513.603699,269.992065 528.414429,270.129944 543.221863,269.962555 
	C557.336304,269.803040 571.446899,269.136261 585.559998,269.107910 
	C590.440796,269.098083 595.324219,270.335968 600.603210,271.001984 
	C601.000000,271.444458 601.000000,271.888885 600.686707,272.656738 
	C599.852600,273.422119 599.331787,273.864136 598.811035,274.306152 
	C599.540710,274.537445 600.270325,274.768738 601.000000,275.000000 
	C601.000000,289.354218 601.000000,303.708466 600.705383,318.280457 
	C599.392090,318.012787 598.378357,317.118439 597.353882,317.105927 
	C588.210510,316.994049 579.064148,316.972351 569.922119,317.127594 
	C568.908630,317.144836 567.916748,318.432495 566.499268,319.147644 
	C562.486633,318.502289 558.816895,318.099701 555.309998,317.116150 
	C550.312256,315.714478 547.335571,316.833832 546.656311,322.407379 
	C546.463318,323.990723 545.442322,325.473175 544.405396,326.914490 
	C542.716553,326.558685 541.420776,326.044312 540.130554,326.058044 
	C512.954407,326.346954 485.778595,326.681427 458.603668,327.071259 
	C457.147003,327.092194 455.698364,327.677277 454.091614,327.652832 
	C451.675751,321.433350 449.476807,315.535767 447.137177,309.694489 
	C444.082001,302.066650 441.080566,294.410126 437.747711,286.902802 
	C434.754150,280.159760 431.343811,273.601715 428.117340,266.962067 
z"/>
<path fill="#46C9FF" opacity="1.000000" stroke="none" 
	d="
M1.000002,267.468658 
	C1.655342,266.542389 2.810874,266.158600 2.890969,265.616028 
	C4.087427,257.511322 5.141870,249.385666 6.626183,241.456696 
	C7.441889,245.351700 9.972967,246.112595 13.110025,245.994003 
	C21.568487,245.674210 30.024010,245.163086 38.485088,245.046539 
	C68.914528,244.627380 99.346283,244.375137 129.775620,243.949570 
	C132.945648,243.905243 134.835083,245.012543 135.715042,248.403564 
	C135.159760,254.401367 134.934723,260.051819 133.934387,265.561523 
	C132.145538,275.414154 129.889374,285.181946 127.495728,295.069427 
	C124.070137,296.875000 123.499008,301.200836 118.335327,301.193665 
	C84.887253,301.147003 51.438461,301.674103 17.989702,301.992401 
	C12.326957,302.046295 6.663258,302.000000 1.000000,302.000000 
	C1.000000,290.645782 1.000000,279.291534 1.000002,267.468658 
z"/>
<path fill="#50CFFF" opacity="1.000000" stroke="none" 
	d="
M1.000000,302.468658 
	C6.663258,302.000000 12.326957,302.046295 17.989702,301.992401 
	C51.438461,301.674103 84.887253,301.147003 118.335327,301.193665 
	C123.499008,301.200836 124.070137,296.875000 127.544212,295.474213 
	C126.829346,300.753510 125.542305,305.679108 124.673912,310.677399 
	C122.374664,323.911499 120.256546,337.177032 117.813232,350.625519 
	C115.343857,352.546997 113.127586,354.272980 110.507050,355.917358 
	C107.811691,355.557190 105.522141,355.053436 103.229279,355.037903 
	C91.275032,354.956940 79.318703,354.896973 67.365669,355.042114 
	C61.084137,355.118378 54.799637,355.984009 48.531704,355.838257 
	C42.911251,355.707520 36.886265,357.890076 31.722267,353.663269 
	C31.235859,353.265076 29.889061,353.219513 29.424530,353.599915 
	C24.116501,357.946289 17.905977,355.402802 12.125338,355.928192 
	C8.632061,356.245697 6.112576,354.606934 5.197575,351.003632 
	C4.477502,347.260742 3.803075,343.508240 3.015074,339.779694 
	C2.696555,338.272583 2.129944,336.817902 1.338120,335.669678 
	C1.000000,324.979095 1.000000,313.958221 1.000000,302.468658 
z"/>
<path fill="#53CFFC" opacity="1.000000" stroke="none" 
	d="
M566.914917,319.130920 
	C567.916748,318.432495 568.908630,317.144836 569.922119,317.127594 
	C579.064148,316.972351 588.210510,316.994049 597.353882,317.105927 
	C598.378357,317.118439 599.392090,318.012787 600.705383,318.749084 
	C601.000000,322.361298 601.000000,325.722565 601.000000,329.541931 
	C600.335571,330.764252 599.175781,331.473541 599.083984,332.301331 
	C598.248718,339.829468 597.608948,347.379150 596.872375,354.918671 
	C596.830261,355.349609 596.443115,355.746857 595.694702,356.476379 
	C593.206421,354.298218 590.871948,352.008209 589.346924,349.267761 
	C585.743774,342.792786 581.942322,336.320801 579.371704,329.419098 
	C577.839905,325.306458 576.367798,322.274353 571.967529,321.141479 
	C570.226196,320.693115 568.595825,319.813965 566.914917,319.130920 
z"/>
<path fill="#42C7FF" opacity="1.000000" stroke="none" 
	d="
M601.000000,274.666687 
	C600.270325,274.768738 599.540710,274.537445 598.811035,274.306152 
	C599.331787,273.864136 599.852600,273.422119 600.686707,272.990051 
	C601.000000,273.444458 601.000000,273.888885 601.000000,274.666687 
z"/>
<path fill="#22B4FF" opacity="1.000000" stroke="none" 
	d="
M143.566010,45.096123 
	C155.150803,44.832096 166.415100,44.731190 177.678360,44.560650 
	C179.494095,44.533157 181.304031,44.037270 183.118546,44.024277 
	C233.728806,43.661858 284.339661,43.378021 334.949677,42.984047 
	C366.736755,42.736603 398.523346,42.383698 430.308472,41.956409 
	C436.884125,41.868011 443.452576,41.241455 450.459595,40.759098 
	C462.525787,48.526531 474.711823,55.704361 485.640198,64.453171 
	C497.944855,74.303795 509.116028,85.570282 520.895020,96.916023 
	C521.008850,98.394211 521.007935,99.177277 520.615723,99.915176 
	C515.601074,98.947586 510.960785,98.058830 507.927307,93.493240 
	C506.886017,93.158981 505.934296,93.104813 504.563171,93.112030 
	C502.564545,93.008698 500.985382,92.843971 499.555725,92.694839 
	C498.252686,83.935349 494.128357,78.766418 485.972198,76.832268 
	C481.537842,75.780693 476.759827,76.222839 472.145599,75.874474 
	C465.614380,75.381401 458.552002,76.616402 453.868774,70.036011 
	C453.082825,68.931671 451.431915,68.278381 450.048859,67.789490 
	C438.566406,63.730572 427.358887,62.252075 417.452789,71.667633 
	C416.874786,72.217056 416.116333,72.765366 415.363403,72.912437 
	C409.032379,74.149086 404.057098,76.767365 398.709137,81.154686 
	C391.288727,87.242226 381.037964,89.879639 371.861389,93.637756 
	C369.560791,92.921471 367.374146,92.153542 365.238953,92.276810 
	C358.342133,92.674973 351.448486,94.006165 344.583557,93.827423 
	C337.943481,93.654526 331.340515,92.057030 324.457458,90.818855 
	C323.248688,86.509056 322.371887,82.448318 321.347198,78.425255 
	C316.354279,58.822392 308.567993,55.147026 291.465851,52.146656 
	C283.137939,50.685616 274.274750,51.862171 265.697479,52.465015 
	C262.780029,52.670067 258.774719,53.985573 257.374084,56.154610 
	C252.673309,63.434196 248.923294,71.327728 244.414902,78.995071 
	C240.801392,79.668724 237.589401,80.873573 234.362259,80.915627 
	C198.646255,81.381073 162.927292,81.616417 127.210495,82.030167 
	C116.432419,82.155014 105.658516,82.639572 94.882698,82.959351 
	C109.095505,67.938797 125.762535,56.064644 143.566010,45.096123 
z"/>
<path fill="#38C1FF" opacity="1.000000" stroke="none" 
	d="
M587.023499,209.630539 
	C586.384277,210.507812 585.829834,211.431427 585.028625,211.768082 
	C584.164185,212.131302 583.069336,211.983231 582.074402,211.993561 
	C549.326782,212.333847 516.578491,212.617767 483.831665,213.018738 
	C465.059509,213.248581 446.282013,213.453217 427.523285,214.125504 
	C421.625946,214.336853 417.815857,212.274338 414.632477,207.592453 
	C412.931244,205.090408 410.366211,203.175720 407.620361,201.122467 
	C402.159180,200.306488 397.301453,199.098923 392.369812,198.488785 
	C386.231903,197.729401 376.684052,204.015625 374.522888,209.886353 
	C372.396545,215.662582 370.423492,221.496292 368.225464,227.244461 
	C367.562317,228.978714 366.372925,230.511749 365.165985,232.580078 
	C357.803284,218.834595 350.858765,205.869766 343.814819,192.689545 
	C343.548096,192.171310 343.292206,192.003296 342.983521,191.974045 
	C343.019257,191.978012 343.013336,192.049728 343.093933,191.650116 
	C341.021149,183.525986 338.867767,175.801468 337.078491,168.116837 
	C338.138702,168.570465 339.208221,168.821320 339.471100,169.424026 
	C341.359039,173.752502 344.924927,174.267487 349.004425,174.018784 
	C355.625153,173.615143 362.251587,173.094025 368.878693,173.045853 
	C387.136841,172.913132 405.397675,173.116913 423.655365,172.956421 
	C434.775482,172.858688 445.889832,172.162003 457.010254,172.031738 
	C492.755554,171.613068 528.502625,171.351669 564.248230,170.954346 
	C566.536804,170.928925 568.818237,170.263748 571.103027,169.896179 
	C575.736267,181.061386 580.372070,192.225540 584.997864,203.393860 
	C585.364136,204.278152 585.660339,205.191513 586.034302,206.768860 
	C586.339172,207.969376 586.598877,208.492386 586.858521,209.015411 
	C586.858521,209.015411 586.999573,209.418411 587.023499,209.630539 
z"/>
<path fill="#33BEFF" opacity="1.000000" stroke="none" 
	d="
M571.064453,169.529724 
	C568.818237,170.263748 566.536804,170.928925 564.248230,170.954346 
	C528.502625,171.351669 492.755554,171.613068 457.010254,172.031738 
	C445.889832,172.162003 434.775482,172.858688 423.655365,172.956421 
	C405.397675,173.116913 387.136841,172.913132 368.878693,173.045853 
	C362.251587,173.094025 355.625153,173.615143 349.004425,174.018784 
	C344.924927,174.267487 341.359039,173.752502 339.471100,169.424026 
	C339.208221,168.821320 338.138702,168.570465 336.887146,167.808136 
	C333.975616,157.636887 331.619537,147.814270 329.612152,138.013733 
	C331.146240,138.591690 332.495148,138.942383 333.491119,139.736053 
	C341.255188,145.923203 349.269867,145.909637 357.660126,141.089386 
	C358.427734,140.648392 359.750275,141.084503 360.797791,141.234436 
	C366.175964,142.004227 371.548431,142.813675 377.861603,143.748230 
	C376.825012,141.059219 376.421600,140.012665 376.402527,138.963852 
	C377.298126,138.919098 377.809357,138.876617 378.667053,138.915604 
	C380.318695,139.566483 381.623932,140.135880 383.028137,140.898132 
	C383.734985,141.119461 384.342865,141.147964 385.392212,141.152054 
	C387.895844,141.107651 389.958008,141.087662 392.178162,141.227615 
	C392.913666,141.139542 393.491089,140.891510 394.378723,140.493713 
	C395.141479,140.280823 395.594025,140.217697 396.220978,140.302597 
	C396.950928,140.121078 397.506470,139.791565 398.356750,139.291992 
	C399.304230,138.945343 399.957031,138.768753 400.700989,138.984726 
	C401.291595,140.433289 401.791046,141.489288 402.290466,142.545288 
	C402.886566,141.958755 403.482666,141.372223 404.440552,140.826599 
	C407.680267,142.735626 410.582916,144.566925 413.431915,146.478149 
	C426.897430,155.511353 440.661041,158.580948 455.488800,149.358658 
	C457.330811,148.212982 460.599060,148.405640 462.865417,149.096680 
	C467.517670,150.515152 471.894470,152.042130 476.703735,149.599792 
	C477.719238,149.084061 479.403778,149.842041 480.770416,150.070831 
	C483.298676,150.494034 486.071228,151.852112 488.292694,151.226151 
	C493.235413,149.833389 497.612152,147.186127 500.337463,142.350159 
	C501.002991,141.169128 502.852844,140.393738 504.314117,139.971756 
	C508.790558,138.679001 513.437866,137.933395 517.846924,136.460526 
	C529.058228,132.715332 534.208069,116.678032 527.945984,105.974823 
	C528.298462,105.545708 528.435669,105.370964 528.572876,105.196228 
	C536.704651,116.067490 545.301453,126.628242 552.829041,137.902863 
	C559.511292,147.911301 565.006592,158.712189 571.064453,169.529724 
z"/>
<path fill="#33BEFF" opacity="1.000000" stroke="none" 
	d="
M521.007019,99.960335 
	C521.007935,99.177277 521.008850,98.394211 521.022888,97.219208 
	C523.414185,99.442673 525.792419,102.058083 528.371704,104.934860 
	C528.435669,105.370964 528.298462,105.545708 527.672729,105.793617 
	C525.125183,103.897964 523.066101,101.929153 521.007019,99.960335 
z"/>
<path fill="#42C7FF" opacity="1.000000" stroke="none" 
	d="
M586.932861,208.688522 
	C586.598877,208.492386 586.339172,207.969376 586.063354,207.148697 
	C586.367188,207.354584 586.687195,207.858124 586.932861,208.688522 
z"/>
<path fill="#36ACB6" opacity="1.000000" stroke="none" 
	d="
M447.408356,563.072021 
	C448.650299,561.255127 450.254883,559.375488 451.859436,557.495850 
	C451.764465,557.002136 451.669495,556.508423 451.574524,556.014709 
	C445.875092,556.014709 440.173492,555.912720 434.476715,556.035950 
	C422.519867,556.294556 410.566925,556.737244 398.609894,556.984863 
	C379.663574,557.377319 360.714752,557.644714 341.767975,558.016602 
	C327.148102,558.303467 312.530060,558.682922 297.910706,558.996643 
	C281.460785,559.349731 265.009888,559.657349 248.560165,560.018066 
	C234.772949,560.320374 220.986877,560.674805 207.200134,560.998962 
	C192.747742,561.338867 178.291428,561.575195 163.847717,562.136780 
	C162.215942,562.200256 160.654633,564.076477 159.032532,565.500977 
	C139.400497,555.437256 120.961655,543.305420 104.305809,527.627686 
	C103.797852,524.313538 102.156990,520.998108 107.433174,520.944275 
	C115.721436,520.859680 124.002846,520.252747 132.291443,520.018860 
	C146.397095,519.620789 160.505707,519.322693 174.613800,519.015930 
	C191.049652,518.658569 207.485153,518.258728 223.922852,518.017700 
	C251.170242,517.618042 278.420380,517.397522 305.666595,516.937073 
	C310.832153,516.849731 315.984802,515.997742 321.143402,515.498535 
	C321.194672,515.094360 321.245911,514.690186 321.297180,514.286011 
	C318.701965,513.481628 316.033417,512.855042 313.531769,511.823639 
	C310.936981,510.753937 308.503845,509.292236 306.398438,508.021210 
	C308.730164,508.487518 310.671600,508.902161 312.595367,509.386932 
	C324.455841,512.375610 336.285614,515.525940 348.641632,512.002014 
	C350.842804,511.374207 353.228607,511.426483 355.484985,510.953827 
	C364.669006,509.029877 373.835876,507.023895 383.001984,505.440369 
	C381.747681,507.271881 380.747620,509.521515 379.204895,509.992126 
	C375.235260,511.203094 371.025177,511.625946 366.911194,512.363708 
	C366.926758,512.812744 366.942352,513.261719 366.957916,513.710754 
	C368.663879,513.807129 370.373108,514.025818 372.075226,513.980042 
	C383.023163,513.685730 393.968323,513.287109 404.916626,513.011536 
	C419.854401,512.635498 434.793640,512.314026 449.733154,512.014465 
	C467.831879,511.651672 485.930969,511.297638 504.031097,511.021149 
	C510.313141,510.925140 510.318634,511.040649 509.044098,517.130005 
	C497.853516,526.714050 487.042725,536.796082 475.346313,545.716919 
	C466.755585,552.269043 457.004761,557.300171 447.408356,563.072021 
z"/>
<path fill="#3CB0BA" opacity="1.000000" stroke="none" 
	d="
M509.391541,517.070251 
	C510.318634,511.040649 510.313141,510.925140 504.031097,511.021149 
	C485.930969,511.297638 467.831879,511.651672 449.733154,512.014465 
	C434.793640,512.314026 419.854401,512.635498 404.916626,513.011536 
	C393.968323,513.287109 383.023163,513.685730 372.075226,513.980042 
	C370.373108,514.025818 368.663879,513.807129 366.957916,513.710754 
	C366.942352,513.261719 366.926758,512.812744 366.911194,512.363708 
	C371.025177,511.625946 375.235260,511.203094 379.204895,509.992126 
	C380.747620,509.521515 381.747681,507.271881 383.306549,505.276245 
	C392.243195,497.820282 401.049438,491.133057 409.447601,483.967621 
	C420.137482,474.846832 430.497101,465.338959 441.062622,456.359070 
	C441.413147,458.636536 441.700134,460.552887 442.066589,462.999969 
	C443.851868,462.999969 445.645874,463.024017 447.439087,462.996338 
	C468.677551,462.668701 489.915863,462.329285 511.154327,462.002411 
	C517.795471,461.900208 524.470520,462.212280 531.069641,461.639374 
	C538.864075,460.962738 546.566711,460.003174 554.093140,463.027344 
	C546.042664,473.874084 538.193726,484.878693 529.866638,495.508850 
	C524.808533,501.965912 519.044128,507.873749 513.519226,513.957703 
	C512.443298,515.142517 511.008331,516.001343 509.391541,517.070251 
z"/>
<path fill="#42B4BE" opacity="1.000000" stroke="none" 
	d="
M554.395935,462.857056 
	C546.566711,460.003174 538.864075,460.962738 531.069641,461.639374 
	C524.470520,462.212280 517.795471,461.900208 511.154327,462.002411 
	C489.915863,462.329285 468.677551,462.668701 447.439087,462.996338 
	C445.645874,463.024017 443.851868,462.999969 442.066589,462.999969 
	C441.700134,460.552887 441.413147,458.636536 441.230408,456.072388 
	C450.439789,446.806702 459.722137,438.365173 468.560333,429.481689 
	C471.964752,426.059814 474.817902,421.778137 473.325592,416.195740 
	C487.498474,416.023529 501.195709,415.940338 515.146729,415.866821 
	C515.738953,415.891357 516.077332,415.906219 516.931335,415.930054 
	C524.685608,415.799530 531.924194,415.659943 539.599976,415.639740 
	C551.120361,415.504578 562.202942,415.165161 573.287476,415.086517 
	C574.961304,415.074646 576.643738,416.278046 578.322205,416.919312 
	C570.447754,432.175171 562.573242,447.431000 554.395935,462.857056 
z"/>
<path fill="#9A9B7D" opacity="1.000000" stroke="none" 
	d="
M516.415710,415.921051 
	C516.077332,415.906219 515.738953,415.891357 515.143433,415.418304 
	C514.668335,410.318604 514.501587,405.674011 514.221375,401.036285 
	C513.714050,392.638123 514.423462,384.470062 518.656311,377.210571 
	C521.976196,381.615448 523.806213,381.732544 527.581238,378.064087 
	C535.991211,369.891541 540.441650,359.189117 545.576782,349.033508 
	C551.220825,337.871582 550.801575,337.852600 563.490417,339.580017 
	C566.967773,340.053406 568.860840,341.309753 569.989868,344.510315 
	C574.074036,356.087433 583.283447,362.304871 593.879639,367.012848 
	C592.142151,374.235168 590.404663,381.457458 588.041626,388.750641 
	C586.402100,387.726379 584.865051,386.793640 584.465881,385.507690 
	C582.835999,380.256165 578.804382,379.740448 574.252991,379.504761 
	C568.948730,379.230133 563.662292,378.176788 558.374573,378.221893 
	C556.129883,378.241058 553.564453,379.792328 551.722595,381.336456 
	C542.083374,389.417267 532.903625,398.073212 522.969727,405.761230 
	C519.255920,408.635437 516.319519,411.033051 516.415710,415.921051 
z"/>
<path fill="#116A1C" opacity="1.000000" stroke="none" 
	d="
M594.063477,366.667236 
	C583.283447,362.304871 574.074036,356.087433 569.989868,344.510315 
	C568.860840,341.309753 566.967773,340.053406 563.490417,339.580017 
	C550.801575,337.852600 551.220825,337.871582 545.576782,349.033508 
	C540.441650,359.189117 535.991211,369.891541 527.581238,378.064087 
	C523.806213,381.732544 521.976196,381.615448 518.734619,376.853210 
	C518.772400,375.449738 518.905701,374.729462 519.321533,373.832062 
	C522.628967,368.951660 526.018555,364.439514 528.603577,359.505829 
	C534.220581,348.785339 539.426941,337.849640 544.801086,327.001892 
	C545.442322,325.473175 546.463318,323.990723 546.656311,322.407379 
	C547.335571,316.833832 550.312256,315.714478 555.309998,317.116150 
	C558.816895,318.099701 562.486633,318.502289 566.499268,319.147644 
	C568.595825,319.813965 570.226196,320.693115 571.967529,321.141479 
	C576.367798,322.274353 577.839905,325.306458 579.371704,329.419098 
	C581.942322,336.320801 585.743774,342.792786 589.346924,349.267761 
	C590.871948,352.008209 593.206421,354.298218 595.511353,356.836548 
	C595.315613,360.027313 594.781494,363.174469 594.063477,366.667236 
z"/>
<path fill="#034309" opacity="1.000000" stroke="none" 
	d="
M516.931335,415.930054 
	C516.319519,411.033051 519.255920,408.635437 522.969727,405.761230 
	C532.903625,398.073212 542.083374,389.417267 551.722595,381.336456 
	C553.564453,379.792328 556.129883,378.241058 558.374573,378.221893 
	C563.662292,378.176788 568.948730,379.230133 574.252991,379.504761 
	C578.804382,379.740448 582.835999,380.256165 584.465881,385.507690 
	C584.865051,386.793640 586.402100,387.726379 587.724487,388.979218 
	C586.758484,393.030212 585.484070,396.923462 583.623169,401.016113 
	C579.186523,400.199310 575.068176,397.776825 571.540222,398.449829 
	C563.347595,400.012665 555.371582,402.875305 547.466614,405.661926 
	C545.565735,406.332062 544.182129,408.674530 542.747864,410.403259 
	C541.422424,412.000732 540.347900,413.806396 539.162842,415.520386 
	C531.924194,415.659943 524.685608,415.799530 516.931335,415.930054 
z"/>
<path fill="#7F825D" opacity="1.000000" stroke="none" 
	d="
M539.599976,415.639740 
	C540.347900,413.806396 541.422424,412.000732 542.747864,410.403259 
	C544.182129,408.674530 545.565735,406.332062 547.466614,405.661926 
	C555.371582,402.875305 563.347595,400.012665 571.540222,398.449829 
	C575.068176,397.776825 579.186523,400.199310 583.413513,401.210938 
	C582.147034,406.304504 580.503784,411.402557 578.591309,416.709961 
	C576.643738,416.278046 574.961304,415.074646 573.287476,415.086517 
	C562.202942,415.165161 551.120361,415.504578 539.599976,415.639740 
z"/>
<path fill="#3DC3FF" opacity="1.000000" stroke="none" 
	d="
M135.695923,247.992798 
	C134.835083,245.012543 132.945648,243.905243 129.775620,243.949570 
	C99.346283,244.375137 68.914528,244.627380 38.485088,245.046539 
	C30.024010,245.163086 21.568487,245.674210 13.110025,245.994003 
	C9.972967,246.112595 7.441889,245.351700 6.989021,241.255005 
	C6.972873,240.142029 6.990272,239.422501 7.263564,238.122177 
	C7.663482,236.979263 7.807508,236.417160 7.951531,235.855042 
	C11.123147,224.254990 14.147100,212.611496 17.539330,201.076324 
	C18.889170,196.486221 21.054123,192.135849 23.322330,187.235443 
	C26.997421,180.892990 31.982208,179.045486 38.466747,179.925186 
	C42.046219,180.410767 43.933678,178.319778 44.437973,174.899063 
	C46.605782,176.627869 49.032166,177.851044 50.223820,179.821075 
	C56.484776,190.171768 65.942436,194.180435 76.940720,189.750580 
	C81.493019,187.917007 84.138664,188.882324 87.373650,191.893951 
	C92.344604,196.521698 97.839691,199.848785 105.339241,198.138824 
	C111.206635,196.800980 117.077690,197.985519 123.143494,194.326843 
	C129.015289,190.785172 136.935410,193.088486 143.603241,196.489563 
	C143.105682,201.308212 142.593704,205.790359 142.028549,210.763794 
	C141.615036,215.024887 141.521866,218.843765 140.840393,222.554611 
	C139.278091,231.062012 137.428741,239.516708 135.695923,247.992798 
z"/>
<path fill="#28B8FF" opacity="1.000000" stroke="none" 
	d="
M94.571808,83.092140 
	C105.658516,82.639572 116.432419,82.155014 127.210495,82.030167 
	C162.927292,81.616417 198.646255,81.381073 234.362259,80.915627 
	C237.589401,80.873573 240.801392,79.668724 244.374847,79.345779 
	C242.871460,84.148964 241.013657,88.610245 238.954514,93.355591 
	C238.089401,95.814774 235.124878,98.041168 238.717957,100.482468 
	C237.376724,104.565628 236.215088,108.283730 234.697678,112.065826 
	C232.080795,113.404396 229.720184,115.917290 227.575363,115.744926 
	C216.751480,114.875084 205.314789,119.392921 195.134033,112.391716 
	C194.640015,112.051979 193.852051,112.049301 193.199646,112.043808 
	C182.591003,111.954407 171.984787,111.370300 161.741486,115.433037 
	C158.872330,116.571022 155.337830,116.194260 152.107422,116.205818 
	C149.632690,116.214676 146.984238,115.314926 145.620926,118.797798 
	C144.504211,118.833466 143.756393,118.798714 142.912933,118.423203 
	C141.283981,117.531670 139.786377,116.728668 138.206726,116.504951 
	C136.782074,116.303207 135.268906,116.853485 133.792557,116.869659 
	C122.722855,116.990913 111.652641,117.125977 100.582527,117.131577 
	C88.349686,117.137764 76.116776,117.010956 63.883896,116.942070 
	C67.133881,112.901367 70.180138,108.673851 73.677383,104.859879 
	C80.403610,97.524483 87.385231,90.423271 94.571808,83.092140 
z"/>
<path fill="#2FBBFF" opacity="1.000000" stroke="none" 
	d="
M63.567394,117.075302 
	C76.116776,117.010956 88.349686,117.137764 100.582527,117.131577 
	C111.652641,117.125977 122.722855,116.990913 133.792557,116.869659 
	C135.268906,116.853485 136.782074,116.303207 138.206726,116.504951 
	C139.786377,116.728668 141.283981,117.531670 142.536606,118.551971 
	C139.238724,119.658661 135.959778,121.388245 133.250854,120.739090 
	C122.908401,118.260681 115.495163,122.143761 109.265434,129.942688 
	C108.396385,131.030655 106.598091,132.087402 105.300423,132.007919 
	C96.033012,131.440369 87.183098,132.899948 78.343704,135.767456 
	C72.761162,137.578461 69.117889,140.620270 67.125710,146.004562 
	C66.648384,147.294647 65.876717,149.160324 64.858253,149.459259 
	C55.259888,152.276627 49.389549,159.424637 43.571884,167.048401 
	C43.229710,167.744080 43.134876,168.379715 43.098007,169.386215 
	C43.107044,170.503510 43.058121,171.249924 42.836983,172.172607 
	C43.029339,172.904190 43.393906,173.459503 43.897305,174.171829 
	C44.036137,174.328827 44.126865,174.738022 44.126865,174.738022 
	C43.933678,178.319778 42.046219,180.410767 38.466747,179.925186 
	C31.982208,179.045486 26.997421,180.892990 23.481400,186.899384 
	C27.862131,176.757065 31.857759,166.109695 37.428112,156.362244 
	C44.693642,143.648438 53.197929,131.641800 61.204254,119.353722 
	C61.734619,118.539726 62.561779,117.919106 63.567394,117.075302 
z"/>
<path fill="#46C9FF" opacity="1.000000" stroke="none" 
	d="
M7.645073,235.982468 
	C7.807508,236.417160 7.663482,236.979263 7.332216,237.768753 
	C7.209521,237.367386 7.274066,236.738632 7.645073,235.982468 
z"/>
<path fill="#3CB0BA" opacity="1.000000" stroke="none" 
	d="
M306.000000,508.001953 
	C308.503845,509.292236 310.936981,510.753937 313.531769,511.823639 
	C316.033417,512.855042 318.701965,513.481628 321.297180,514.286011 
	C321.245911,514.690186 321.194672,515.094360 321.143402,515.498535 
	C315.984802,515.997742 310.832153,516.849731 305.666595,516.937073 
	C278.420380,517.397522 251.170242,517.618042 223.922852,518.017700 
	C207.485153,518.258728 191.049652,518.658569 174.613800,519.015930 
	C160.505707,519.322693 146.397095,519.620789 132.291443,520.018860 
	C124.002846,520.252747 115.721436,520.859680 107.433174,520.944275 
	C102.156990,520.998108 103.797852,524.313538 103.996689,527.483765 
	C93.892853,517.667480 83.547302,507.691132 73.766312,497.189026 
	C67.786156,490.767914 62.673225,483.539154 57.433441,476.277527 
	C61.115360,475.256531 64.523193,474.166962 67.955849,474.082123 
	C87.865326,473.590393 107.780388,473.318634 127.694061,473.004364 
	C150.100189,472.650757 172.506836,472.331207 194.913223,471.994812 
	C195.577713,471.984863 196.462250,472.218567 196.866684,471.883301 
	C198.343445,470.659088 199.659988,469.241608 201.461868,467.910706 
	C215.870712,471.436066 229.870972,474.885437 243.813141,478.555481 
	C245.211319,478.923492 246.181732,480.731110 247.479538,481.697601 
	C253.412552,486.116241 258.830017,491.848114 265.472961,494.561188 
	C278.618927,499.930298 292.451355,503.618744 306.000000,508.001953 
z"/>
<path fill="#42B4BE" opacity="1.000000" stroke="none" 
	d="
M201.036896,467.896973 
	C199.659988,469.241608 198.343445,470.659088 196.866684,471.883301 
	C196.462250,472.218567 195.577713,471.984863 194.913223,471.994812 
	C172.506836,472.331207 150.100189,472.650757 127.694061,473.004364 
	C107.780388,473.318634 87.865326,473.590393 67.955849,474.082123 
	C64.523193,474.166962 61.115360,475.256531 57.297699,475.957092 
	C44.803337,460.352997 35.750301,442.885590 27.078308,425.199219 
	C26.230721,423.470551 25.685352,421.593658 25.413782,419.407471 
	C28.531418,419.002991 31.234974,418.976624 34.412643,418.964050 
	C50.537167,418.956726 66.187584,418.935577 82.316330,418.936768 
	C92.170372,418.972443 101.546066,418.985809 111.192650,419.181152 
	C112.674980,421.151215 113.886421,422.939270 115.108871,425.103882 
	C117.003181,427.931458 118.504875,430.852905 120.839897,432.747040 
	C128.458511,438.927155 136.131180,445.106964 144.277863,450.545654 
	C149.409271,453.971436 155.228073,456.670624 161.097870,458.605652 
	C167.516403,460.721527 174.349091,461.581055 181.061951,463.244720 
	C181.750443,463.370758 182.378250,463.240204 183.318985,463.135803 
	C184.421982,463.429993 185.212036,463.698059 186.120178,464.308319 
	C189.647003,465.974670 193.020935,467.407410 196.496964,468.521576 
	C197.114639,468.719604 198.156723,467.593628 199.283371,467.108582 
	C200.054916,467.391052 200.545914,467.644012 201.036896,467.896973 
z"/>
<path fill="#5AD4FD" opacity="1.000000" stroke="none" 
	d="
M110.921768,418.999146 
	C101.546066,418.985809 92.170372,418.972443 82.295044,418.547882 
	C80.553009,411.824188 79.289207,405.515808 78.076927,399.197571 
	C77.441635,395.886505 76.275566,393.297546 72.308167,392.823944 
	C71.293106,392.702759 69.853172,391.108673 69.660889,390.007507 
	C68.873337,385.497253 68.492691,380.915955 67.948456,376.036224 
	C66.025337,368.506714 64.353149,367.562256 53.930489,367.802338 
	C43.294956,368.047241 40.575768,371.447968 42.600208,382.444702 
	C43.271160,395.748535 39.740646,407.623230 33.938530,418.950226 
	C31.234974,418.976624 28.531418,419.002991 25.374649,419.029846 
	C19.959164,404.736542 14.649328,390.550476 10.173338,376.105988 
	C7.738124,368.247314 6.719287,359.949677 5.129596,351.426819 
	C6.112576,354.606934 8.632061,356.245697 12.125338,355.928192 
	C17.905977,355.402802 24.116501,357.946289 29.424530,353.599915 
	C29.889061,353.219513 31.235859,353.265076 31.722267,353.663269 
	C36.886265,357.890076 42.911251,355.707520 48.531704,355.838257 
	C54.799637,355.984009 61.084137,355.118378 67.365669,355.042114 
	C79.318703,354.896973 91.275032,354.956940 103.229279,355.037903 
	C105.522141,355.053436 107.811691,355.557190 110.474884,356.302399 
	C109.744789,361.110016 108.723511,365.473358 107.526054,369.787842 
	C102.859779,386.600555 105.113274,402.918396 110.921768,418.999146 
z"/>
<path fill="#20842B" opacity="1.000000" stroke="none" 
	d="
M427.990417,266.596405 
	C431.343811,273.601715 434.754150,280.159760 437.747711,286.902802 
	C441.080566,294.410126 444.082001,302.066650 447.137177,309.694489 
	C449.476807,315.535767 451.675751,321.433350 454.091370,328.042480 
	C454.913239,332.868866 454.992218,337.168060 456.358368,341.009521 
	C460.578888,352.877411 465.290161,364.570770 469.851562,376.700226 
	C472.257050,385.449951 474.463837,393.880371 477.043030,402.195251 
	C478.718628,407.596893 476.825928,411.482208 472.625061,414.843323 
	C472.403229,414.848022 471.971252,414.951843 471.715271,414.729767 
	C470.221619,413.473114 468.304047,412.673492 467.852570,411.367218 
	C463.782135,399.589111 459.157837,387.903992 456.443695,375.799744 
	C455.205017,370.275604 454.657684,365.232391 449.958923,361.176453 
	C447.619965,355.844055 445.364410,350.888336 443.104309,345.536987 
	C438.216980,322.351990 426.630219,302.233185 417.437073,281.176483 
	C413.585480,272.354492 409.354065,263.778564 409.000061,253.519653 
	C404.949493,245.687943 404.027679,236.015900 394.878937,232.266235 
	C389.750214,237.615997 384.960449,242.612183 379.811523,247.726776 
	C377.608093,248.914490 375.599976,249.778381 373.951569,251.093216 
	C369.710754,254.475830 365.222198,256.020691 359.595306,253.772644 
	C356.748291,251.539978 353.474915,249.839386 351.877472,247.145126 
	C343.057373,232.269455 339.747040,215.395340 335.490234,199.076447 
	C336.708710,199.877502 337.940613,200.424728 338.403656,201.354721 
	C341.638489,207.852249 344.492615,214.547058 347.902405,220.947617 
	C351.408661,227.529251 355.386719,233.860840 359.200256,240.276886 
	C360.874664,243.093933 363.349243,243.696121 366.002350,241.930893 
	C370.255981,239.100800 374.918182,236.551743 378.340332,232.887177 
	C382.902649,228.001633 386.442780,222.161560 390.499084,216.626282 
	C395.758392,216.432449 399.961731,218.979416 402.554077,223.643890 
	C405.520355,228.981079 407.962646,234.610168 410.614777,240.121033 
	C413.092804,245.270233 415.834137,246.045059 420.950867,243.010757 
	C423.255066,250.750748 425.559265,258.490753 427.990417,266.596405 
z"/>
<path fill="#279935" opacity="1.000000" stroke="none" 
	d="
M420.983643,242.612183 
	C415.834137,246.045059 413.092804,245.270233 410.614777,240.121033 
	C407.962646,234.610168 405.520355,228.981079 402.554077,223.643890 
	C399.961731,218.979416 395.758392,216.432449 390.499084,216.626282 
	C386.442780,222.161560 382.902649,228.001633 378.340332,232.887177 
	C374.918182,236.551743 370.255981,239.100800 366.002350,241.930893 
	C363.349243,243.696121 360.874664,243.093933 359.200256,240.276886 
	C355.386719,233.860840 351.408661,227.529251 347.902405,220.947617 
	C344.492615,214.547058 341.638489,207.852249 338.403656,201.354721 
	C337.940613,200.424728 336.708710,199.877502 335.344788,198.717407 
	C334.264893,194.927628 333.672882,191.573563 333.427612,188.261444 
	C336.854004,189.552170 339.933685,190.800949 343.013336,192.049728 
	C343.013336,192.049728 343.019257,191.978012 343.067139,192.198578 
	C343.313599,192.692734 343.579987,192.854675 343.914215,192.904938 
	C350.858765,205.869766 357.803284,218.834595 365.165985,232.580078 
	C366.372925,230.511749 367.562317,228.978714 368.225464,227.244461 
	C370.423492,221.496292 372.396545,215.662582 374.522888,209.886353 
	C376.684052,204.015625 386.231903,197.729401 392.369812,198.488785 
	C397.301453,199.098923 402.159180,200.306488 407.429382,201.357025 
	C410.806671,210.162308 413.888458,218.831757 416.768585,227.567688 
	C418.359131,232.392090 419.611572,237.327972 420.983643,242.612183 
z"/>
<path fill="#55D1FE" opacity="1.000000" stroke="none" 
	d="
M469.810883,376.331879 
	C465.290161,364.570770 460.578888,352.877411 456.358368,341.009521 
	C454.992218,337.168060 454.913239,332.868866 454.245728,328.389404 
	C455.698364,327.677277 457.147003,327.092194 458.603668,327.071259 
	C485.778595,326.681427 512.954407,326.346954 540.130554,326.058044 
	C541.420776,326.044312 542.716553,326.558685 544.405396,326.914490 
	C539.426941,337.849640 534.220581,348.785339 528.603577,359.505829 
	C526.018555,364.439514 522.628967,368.951660 518.908203,373.754730 
	C502.952820,373.966064 487.692902,374.042175 472.435516,374.279816 
	C471.550232,374.293610 470.685303,375.617645 469.810883,376.331879 
z"/>
<path fill="#D0D1CC" opacity="1.000000" stroke="none" 
	d="
M135.715042,248.403564 
	C137.428741,239.516708 139.278091,231.062012 140.840393,222.554611 
	C141.521866,218.843765 141.615036,215.024887 142.337357,210.973206 
	C144.776947,212.009857 147.443954,214.824005 148.792526,214.292542 
	C150.761765,213.516510 151.714645,210.286819 153.239548,208.204651 
	C153.996292,207.171356 155.062454,206.364685 155.988007,205.942642 
	C155.658707,211.556961 155.098816,216.681778 155.046478,221.811783 
	C154.911209,235.069153 155.056946,248.329285 154.947830,261.587128 
	C154.927658,264.036987 154.509308,266.561737 153.809219,268.913361 
	C151.578720,276.405640 148.716690,283.731079 146.851410,291.306366 
	C143.245850,305.949310 140.165329,320.721283 136.845459,335.434875 
	C135.214249,342.664307 133.534576,349.882843 131.604736,356.906982 
	C128.598312,351.048370 124.297523,348.699463 118.066345,350.430054 
	C120.256546,337.177032 122.374664,323.911499 124.673912,310.677399 
	C125.542305,305.679108 126.829346,300.753510 127.877060,295.389984 
	C129.889374,285.181946 132.145538,275.414154 133.934387,265.561523 
	C134.934723,260.051819 135.159760,254.401367 135.715042,248.403564 
z"/>
<path fill="#279934" opacity="1.000000" stroke="none" 
	d="
M117.813232,350.625519 
	C124.297523,348.699463 128.598312,351.048370 131.703568,357.229248 
	C138.022873,363.855438 143.971237,369.960022 150.068878,376.341064 
	C151.174362,377.726440 152.130585,378.835419 152.643417,379.963989 
	C150.708496,380.090210 149.207703,380.124603 147.726944,380.314941 
	C137.332062,381.650909 126.796867,383.616058 119.399261,373.099915 
	C119.131920,372.719849 118.269440,372.758453 117.263687,372.489410 
	C116.492310,381.197113 115.105843,389.572540 115.224823,397.926575 
	C115.311867,404.038147 115.479111,410.643188 120.214256,415.743408 
	C124.329788,420.176300 124.095406,421.777344 118.779510,425.727295 
	C117.321365,425.391907 116.209618,425.059601 115.097870,424.727325 
	C113.886421,422.939270 112.674980,421.151215 111.192650,419.181152 
	C105.113274,402.918396 102.859779,386.600555 107.526054,369.787842 
	C108.723511,365.473358 109.744789,361.110016 110.879166,356.384033 
	C113.127586,354.272980 115.343857,352.546997 117.813232,350.625519 
z"/>
<path fill="#EAFBFF" opacity="1.000000" stroke="none" 
	d="
M520.615723,99.915176 
	C523.066101,101.929153 525.125183,103.897964 527.457520,106.047989 
	C534.208069,116.678032 529.058228,132.715332 517.846924,136.460526 
	C513.437866,137.933395 508.790558,138.679001 504.314117,139.971756 
	C502.852844,140.393738 501.002991,141.169128 500.337463,142.350159 
	C497.612152,147.186127 493.235413,149.833389 488.292694,151.226151 
	C486.071228,151.852112 483.298676,150.494034 480.770416,150.070831 
	C479.403778,149.842041 477.719238,149.084061 476.703735,149.599792 
	C471.894470,152.042130 467.517670,150.515152 462.865417,149.096680 
	C460.599060,148.405640 457.330811,148.212982 455.488800,149.358658 
	C440.661041,158.580948 426.897430,155.511353 413.431915,146.478149 
	C410.582916,144.566925 407.680267,142.735626 404.349060,140.577057 
	C403.578827,139.862442 403.261841,139.438248 402.955505,138.758057 
	C402.199219,138.509888 401.432251,138.517731 400.637970,138.531235 
	C400.610626,138.536896 400.609802,138.592148 400.609802,138.592148 
	C399.957031,138.768753 399.304230,138.945343 398.077209,139.253036 
	C397.017517,139.640945 396.532043,139.897766 396.046600,140.154587 
	C395.594025,140.217697 395.141479,140.280823 394.111511,140.408783 
	C393.029480,140.671631 392.524811,140.869644 392.020142,141.067673 
	C389.958008,141.087662 387.895844,141.107651 385.181458,140.971680 
	C383.995880,140.778885 383.462524,140.742081 382.929169,140.705276 
	C381.623932,140.135880 380.318695,139.566483 378.513397,138.650650 
	C377.326691,137.902939 376.640076,137.501663 375.791809,136.806183 
	C373.362976,134.354111 371.364471,131.776825 368.776917,130.118820 
	C361.687744,125.576355 357.939026,119.552780 359.088776,110.759933 
	C359.313812,110.003784 359.354584,109.460968 359.570374,108.584625 
	C361.707794,101.674873 366.512451,97.541481 371.998932,93.994141 
	C381.037964,89.879639 391.288727,87.242226 398.709137,81.154686 
	C404.057098,76.767365 409.032379,74.149086 415.363403,72.912437 
	C416.116333,72.765366 416.874786,72.217056 417.452789,71.667633 
	C427.358887,62.252075 438.566406,63.730572 450.048859,67.789490 
	C451.431915,68.278381 453.082825,68.931671 453.868774,70.036011 
	C458.552002,76.616402 465.614380,75.381401 472.145599,75.874474 
	C476.759827,76.222839 481.537842,75.780693 485.972198,76.832268 
	C494.128357,78.766418 498.252686,83.935349 499.555725,92.694839 
	C500.985382,92.843971 502.564545,93.008698 504.819824,93.307823 
	C506.336273,93.552597 507.176605,93.662964 508.016937,93.773331 
	C510.960785,98.058830 515.601074,98.947586 520.615723,99.915176 
z"/>
<path fill="#2EBBFF" opacity="1.000000" stroke="none" 
	d="
M371.861389,93.637756 
	C366.512451,97.541481 361.707794,101.674873 359.365662,108.679176 
	C358.958771,109.729263 358.931641,110.351265 358.904510,110.973274 
	C357.939026,119.552780 361.687744,125.576355 368.776917,130.118820 
	C371.364471,131.776825 373.362976,134.354111 375.788605,137.117615 
	C375.970703,138.137527 375.994415,138.551819 376.018127,138.966125 
	C376.421600,140.012665 376.825012,141.059219 377.861603,143.748230 
	C371.548431,142.813675 366.175964,142.004227 360.797791,141.234436 
	C359.750275,141.084503 358.427734,140.648392 357.660126,141.089386 
	C349.269867,145.909637 341.255188,145.923203 333.491119,139.736053 
	C332.495148,138.942383 331.146240,138.591690 329.456207,137.640839 
	C327.382874,128.314453 325.814117,119.383003 324.622620,110.479332 
	C325.249695,108.017998 325.499512,105.528885 325.802612,102.593536 
	C325.477661,98.459953 325.099457,94.772621 324.721252,91.085281 
	C331.340515,92.057030 337.943481,93.654526 344.583557,93.827423 
	C351.448486,94.006165 358.342133,92.674973 365.238953,92.276810 
	C367.374146,92.153542 369.560791,92.921471 371.861389,93.637756 
z"/>
<path fill="#269A36" opacity="1.000000" stroke="none" 
	d="
M324.457458,90.818863 
	C325.099457,94.772621 325.477661,98.459953 325.462921,102.561859 
	C324.165680,102.311714 323.000671,101.826492 322.399323,100.953171 
	C318.463318,95.237335 314.775513,89.348213 310.768585,83.684113 
	C302.870605,72.519722 294.018005,63.619465 278.382324,64.782898 
	C265.312134,65.755440 256.719086,72.922653 250.000015,82.669357 
	C246.942825,87.104126 243.355392,90.216118 239.155853,93.071526 
	C241.013657,88.610245 242.871460,84.148964 244.769318,79.336975 
	C248.923294,71.327728 252.673309,63.434196 257.374084,56.154610 
	C258.774719,53.985573 262.780029,52.670067 265.697479,52.465015 
	C274.274750,51.862171 283.137939,50.685616 291.465851,52.146656 
	C308.567993,55.147026 316.354279,58.822392 321.347198,78.425255 
	C322.371887,82.448318 323.248688,86.509056 324.457458,90.818863 
z"/>
<path fill="#33BEFF" opacity="1.000000" stroke="none" 
	d="
M507.927307,93.493240 
	C507.176605,93.662964 506.336273,93.552597 505.239258,93.246437 
	C505.934296,93.104813 506.886017,93.158981 507.927307,93.493240 
z"/>
<path fill="#CFD0CD" opacity="1.000000" stroke="none" 
	d="
M324.245392,110.451561 
	C325.814117,119.383003 327.382874,128.314453 329.107544,137.618774 
	C331.619537,147.814270 333.975616,157.636887 336.523041,167.768219 
	C338.867767,175.801468 341.021149,183.525986 343.093933,191.650116 
	C339.933685,190.800949 336.854004,189.552170 333.422913,187.832458 
	C331.416412,181.644516 330.184357,175.759872 328.001221,170.252228 
	C325.157349,163.077759 321.187164,156.345444 318.416779,149.147614 
	C316.591827,144.406158 316.306122,139.095856 314.832764,134.189957 
	C312.603180,126.766083 309.812988,119.499725 304.659698,113.517609 
	C300.878937,109.128761 296.285126,105.159180 290.178772,106.159050 
	C281.997040,107.498756 273.938843,109.863831 267.657898,115.875206 
	C263.930786,119.442383 260.048035,122.912781 256.778625,126.875061 
	C253.013718,131.437851 247.948471,136.091370 246.815720,141.421249 
	C244.422211,152.683167 243.509232,164.398666 243.311111,175.950790 
	C243.095352,188.532669 244.394501,201.139450 244.982712,213.737717 
	C245.051956,215.220749 244.975006,216.754608 244.673889,218.204269 
	C240.860901,236.561523 237.097260,254.930038 233.110123,273.249756 
	C229.698120,288.926941 225.290131,304.425354 222.679596,320.226990 
	C220.588211,332.886292 219.093414,345.836334 223.555695,358.640503 
	C225.722534,364.858154 226.569687,371.535706 227.588287,378.002625 
	C222.453156,377.598206 217.744003,377.196289 213.003876,376.399658 
	C210.441422,357.645081 202.382980,341.571777 192.161926,326.469696 
	C190.828812,324.499969 188.057098,323.548309 186.112976,321.931244 
	C184.921677,320.940399 183.220261,319.628998 183.145508,318.378052 
	C182.570587,308.756439 182.633194,299.092346 181.914688,289.485016 
	C181.223434,280.242004 179.945938,271.036133 178.708282,261.843262 
	C178.000290,256.584442 176.479538,251.417450 176.015991,246.148315 
	C175.536392,240.696518 176.179703,235.151413 175.803329,229.683517 
	C175.427872,224.229233 174.397156,218.820053 173.905319,213.201843 
	C175.731018,211.957947 177.305115,210.903290 178.932404,210.283295 
	C181.053894,226.141251 183.122162,241.564545 185.135620,257.421570 
	C186.147171,270.920776 187.004837,284.008209 188.371658,297.042236 
	C189.014282,303.170135 190.967346,308.880890 196.879700,312.458862 
	C200.763474,314.809235 202.092636,314.565979 203.773010,310.405060 
	C208.237213,299.350800 211.285156,287.920654 212.897171,276.131226 
	C213.765701,269.779144 214.201797,263.367920 215.015228,256.612976 
	C216.059174,250.556259 216.979355,244.878036 217.770569,239.181931 
	C219.491745,226.790695 221.147171,214.390305 222.916382,201.580780 
	C223.556549,195.626907 223.973953,190.068176 224.695068,184.549103 
	C225.762283,176.381210 227.045105,168.241486 228.419342,159.732941 
	C230.752869,143.584702 232.903168,127.793266 235.053467,112.001831 
	C236.215088,108.283730 237.376724,104.565628 239.080551,100.735847 
	C242.615585,103.561234 244.980011,101.897240 247.923233,100.083855 
	C253.334549,96.749794 258.907135,93.381027 264.858948,91.309441 
	C270.137512,89.472198 276.059113,89.563400 281.628571,88.458992 
	C287.496094,87.295494 292.931488,89.026703 297.019379,92.465363 
	C305.445129,99.552902 314.281219,105.796806 324.245392,110.451561 
z"/>
<path fill="#CFD0CD" opacity="1.000000" stroke="none" 
	d="
M343.814819,192.689545 
	C343.579987,192.854675 343.313599,192.692734 343.031403,192.194611 
	C343.292206,192.003296 343.548096,192.171310 343.814819,192.689545 
z"/>
<path fill="#2EBBFF" opacity="1.000000" stroke="none" 
	d="
M402.944855,139.014053 
	C403.261841,139.438248 403.578827,139.862442 403.987274,140.536163 
	C403.482666,141.372223 402.886566,141.958755 402.290466,142.545288 
	C401.791046,141.489288 401.291595,140.433289 400.700989,138.984726 
	C400.609802,138.592148 400.610626,138.536896 401.006836,138.667206 
	C401.916962,138.869705 402.430908,138.941879 402.944855,139.014053 
z"/>
<path fill="#4EC7FF" opacity="1.000000" stroke="none" 
	d="
M396.220978,140.302597 
	C396.532043,139.897766 397.017517,139.640945 397.782501,139.423096 
	C397.506470,139.791565 396.950928,140.121078 396.220978,140.302597 
z"/>
<path fill="#4EC7FF" opacity="1.000000" stroke="none" 
	d="
M376.402496,138.963852 
	C375.994415,138.551819 375.970703,138.137527 375.950195,137.411804 
	C376.640076,137.501663 377.326691,137.902939 378.166992,138.569183 
	C377.809357,138.876617 377.298126,138.919098 376.402496,138.963852 
z"/>
<path fill="#4EC7FF" opacity="1.000000" stroke="none" 
	d="
M383.028137,140.898132 
	C383.462524,140.742081 383.995880,140.778885 384.739990,140.996094 
	C384.342865,141.147964 383.734985,141.119461 383.028137,140.898132 
z"/>
<path fill="#4EC7FF" opacity="1.000000" stroke="none" 
	d="
M392.178162,141.227615 
	C392.524811,140.869644 393.029480,140.671631 393.801331,140.558533 
	C393.491089,140.891510 392.913666,141.139542 392.178162,141.227615 
z"/>
<path fill="#2B8C94" opacity="1.000000" stroke="none" 
	d="
M115.108871,425.103882 
	C116.209618,425.059601 117.321365,425.391907 119.112137,425.824341 
	C122.012024,425.951599 124.232872,425.978699 126.660858,426.325989 
	C143.645706,433.218414 158.859238,443.505737 176.623337,447.710510 
	C182.752594,449.161346 188.982925,451.294495 195.149887,451.237823 
	C206.762634,451.131256 218.362854,449.660400 230.412750,448.855347 
	C240.046371,450.348450 249.271149,451.544830 258.415497,453.188507 
	C269.350464,455.154083 280.216675,457.502106 291.475403,459.832397 
	C304.878876,461.913940 317.919586,463.847534 331.388977,465.764923 
	C338.078003,466.128113 344.377991,467.107483 350.586334,466.698029 
	C355.600189,466.367371 360.548370,464.511505 365.440247,463.046997 
	C368.729004,462.062469 371.937500,460.728058 375.054993,459.277435 
	C377.900696,457.953308 380.660645,456.395416 383.308014,454.705048 
	C388.804840,451.195251 395.944580,449.857941 399.280579,442.902069 
	C403.742462,440.070587 407.890472,437.364868 412.413422,434.826599 
	C415.527985,435.172302 418.437805,436.037354 420.977264,435.408020 
	C431.038849,432.914459 441.211548,430.564392 450.899017,426.965820 
	C458.212982,424.248901 464.851471,419.713623 472.013367,416.039612 
	C472.236176,416.091583 472.684204,416.184357 472.726074,416.208740 
	C472.767975,416.233093 472.849945,416.284760 472.849945,416.284760 
	C474.817902,421.778137 471.964752,426.059814 468.560333,429.481689 
	C459.722137,438.365173 450.439789,446.806702 441.166870,455.711273 
	C430.497101,465.338959 420.137482,474.846832 409.447601,483.967621 
	C401.049438,491.133057 392.243195,497.820282 383.313629,504.884033 
	C373.835876,507.023895 364.669006,509.029877 355.484985,510.953827 
	C353.228607,511.426483 350.842804,511.374207 348.641632,512.002014 
	C336.285614,515.525940 324.455841,512.375610 312.595367,509.386932 
	C310.671600,508.902161 308.730164,508.487518 306.398438,508.021240 
	C292.451355,503.618744 278.618927,499.930298 265.472961,494.561188 
	C258.830017,491.848114 253.412552,486.116241 247.479538,481.697601 
	C246.181732,480.731110 245.211319,478.923492 243.813141,478.555481 
	C229.870972,474.885437 215.870712,471.436066 201.461884,467.910706 
	C200.545914,467.644012 200.054916,467.391052 198.916382,467.011322 
	C194.179932,465.911713 190.091019,464.938904 186.002106,463.966095 
	C185.212036,463.698059 184.421982,463.429993 182.986435,463.093628 
	C181.894379,463.012970 181.447815,463.000580 181.001251,462.988159 
	C174.349091,461.581055 167.516403,460.721527 161.097870,458.605652 
	C155.228073,456.670624 149.409271,453.971436 144.277863,450.545654 
	C136.131180,445.106964 128.458511,438.927155 120.839897,432.747040 
	C118.504875,430.852905 117.003181,427.931458 115.108871,425.103882 
z"/>
<path fill="#5DD6FE" opacity="1.000000" stroke="none" 
	d="
M469.851562,376.700226 
	C470.685303,375.617645 471.550232,374.293610 472.435516,374.279816 
	C487.692902,374.042175 502.952820,373.966064 518.625549,373.931854 
	C518.905701,374.729462 518.772400,375.449738 518.560791,376.527405 
	C514.423462,384.470062 513.714050,392.638123 514.221375,401.036285 
	C514.501587,405.674011 514.668335,410.318604 514.889587,415.408630 
	C501.195709,415.940338 487.498474,416.023529 473.325592,416.195740 
	C472.849945,416.284760 472.767975,416.233093 472.782410,415.873352 
	C472.813538,415.288635 472.830200,415.063660 472.846893,414.838654 
	C476.825928,411.482208 478.718628,407.596893 477.043030,402.195251 
	C474.463837,393.880371 472.257050,385.449951 469.851562,376.700226 
z"/>
<path fill="#EAFBFF" opacity="1.000000" stroke="none" 
	d="
M43.009193,171.996338 
	C43.058121,171.249924 43.107044,170.503510 43.308380,169.191467 
	C43.580273,168.080017 43.699753,167.534180 43.819229,166.988342 
	C49.389549,159.424637 55.259888,152.276627 64.858253,149.459259 
	C65.876717,149.160324 66.648384,147.294647 67.125710,146.004562 
	C69.117889,140.620270 72.761162,137.578461 78.343704,135.767456 
	C87.183098,132.899948 96.033012,131.440369 105.300423,132.007919 
	C106.598091,132.087402 108.396385,131.030655 109.265434,129.942688 
	C115.495163,122.143761 122.908401,118.260681 133.250854,120.739090 
	C135.959778,121.388245 139.238724,119.658661 142.632233,118.892738 
	C143.756393,118.798714 144.504211,118.833466 146.007507,118.907051 
	C156.181412,120.187645 163.047043,124.253906 164.954453,134.476501 
	C165.529694,137.559418 167.490677,138.901688 171.252655,137.747574 
	C180.562912,134.891296 192.872330,140.722900 193.625854,148.982635 
	C194.130173,154.510925 196.861862,156.355392 201.108475,158.337860 
	C205.623978,164.847549 204.835587,167.784622 198.003754,171.401962 
	C197.133270,171.862854 196.293045,172.846497 195.955521,173.775665 
	C192.920013,182.131775 190.164368,184.025757 181.201782,183.899170 
	C180.108078,187.076950 179.049911,190.151520 177.635956,193.317871 
	C174.006577,194.547607 170.648651,195.491379 167.478821,196.868195 
	C162.512177,199.025513 157.810394,199.314178 152.645920,197.124023 
	C149.970764,195.989517 146.629272,196.426208 143.588821,196.153076 
	C136.935410,193.088486 129.015289,190.785172 123.143494,194.326843 
	C117.077690,197.985519 111.206635,196.800980 105.339241,198.138824 
	C97.839691,199.848785 92.344604,196.521698 87.373650,191.893951 
	C84.138664,188.882324 81.493019,187.917007 76.940720,189.750580 
	C65.942436,194.180435 56.484776,190.171768 50.223820,179.821075 
	C49.032166,177.851044 46.605782,176.627869 44.437973,174.899063 
	C44.126865,174.738022 44.036137,174.328827 43.924942,173.888275 
	C43.545567,172.963928 43.277382,172.480133 43.009193,171.996338 
z"/>
<path fill="#24862F" opacity="1.000000" stroke="none" 
	d="
M143.603241,196.489563 
	C146.629272,196.426208 149.970764,195.989517 152.645920,197.124023 
	C157.810394,199.314178 162.512177,199.025513 167.478821,196.868195 
	C170.648651,195.491379 174.006577,194.547607 177.663513,193.636353 
	C178.176407,194.268509 178.305954,194.673996 178.386368,195.287628 
	C178.337234,195.495773 178.460449,195.905350 178.377228,196.264252 
	C178.318100,197.112183 178.342178,197.601227 178.260193,198.459381 
	C178.410019,200.058090 178.665924,201.287720 178.869232,202.830658 
	C178.957413,203.759216 179.098221,204.374481 179.209625,205.395279 
	C179.079895,207.150101 178.979538,208.499359 178.879211,209.848633 
	C177.305115,210.903290 175.731018,211.957947 173.564331,213.200897 
	C171.450867,212.671646 169.285049,212.363937 168.522736,211.164337 
	C165.502853,206.412186 161.626892,204.163864 155.988632,205.455505 
	C155.062454,206.364685 153.996292,207.171356 153.239548,208.204651 
	C151.714645,210.286819 150.761765,213.516510 148.792526,214.292542 
	C147.443954,214.824005 144.776947,212.009857 142.390533,210.481934 
	C142.593704,205.790359 143.105682,201.308212 143.603241,196.489563 
z"/>
<path fill="#2FBBFF" opacity="1.000000" stroke="none" 
	d="
M200.957153,158.016815 
	C196.861862,156.355392 194.130173,154.510925 193.625854,148.982635 
	C192.872330,140.722900 180.562912,134.891296 171.252655,137.747574 
	C167.490677,138.901688 165.529694,137.559418 164.954453,134.476501 
	C163.047043,124.253906 156.181412,120.187645 146.376389,118.836632 
	C146.984238,115.314926 149.632690,116.214676 152.107422,116.205818 
	C155.337830,116.194260 158.872330,116.571022 161.741486,115.433037 
	C171.984787,111.370300 182.591003,111.954407 193.199646,112.043808 
	C193.852051,112.049301 194.640015,112.051979 195.134033,112.391716 
	C205.314789,119.392921 216.751480,114.875084 227.575363,115.744926 
	C229.720184,115.917290 232.080795,113.404396 234.697693,112.065826 
	C232.903168,127.793266 230.752869,143.584702 227.932907,159.710388 
	C218.494553,159.368713 209.725845,158.692764 200.957153,158.016815 
z"/>
<path fill="#1F842A" opacity="1.000000" stroke="none" 
	d="
M324.622620,110.479332 
	C314.281219,105.796806 305.445129,99.552902 297.019379,92.465363 
	C292.931488,89.026703 287.496094,87.295494 281.628571,88.458992 
	C276.059113,89.563400 270.137512,89.472198 264.858948,91.309441 
	C258.907135,93.381027 253.334549,96.749794 247.923233,100.083855 
	C244.980011,101.897240 242.615585,103.561234 239.260132,100.370796 
	C235.124878,98.041168 238.089401,95.814774 238.954514,93.355591 
	C243.355392,90.216118 246.942825,87.104126 250.000015,82.669357 
	C256.719086,72.922653 265.312134,65.755440 278.382324,64.782898 
	C294.018005,63.619465 302.870605,72.519722 310.768585,83.684113 
	C314.775513,89.348213 318.463318,95.237335 322.399323,100.953171 
	C323.000671,101.826492 324.165680,102.311714 325.409668,103.008102 
	C325.499512,105.528885 325.249695,108.017998 324.622620,110.479332 
z"/>
<path fill="#3DC3FF" opacity="1.000000" stroke="none" 
	d="
M43.571884,167.048401 
	C43.699753,167.534180 43.580273,168.080017 43.250420,168.820587 
	C43.134876,168.379715 43.229710,167.744080 43.571884,167.048401 
z"/>
<path fill="#3DC3FF" opacity="1.000000" stroke="none" 
	d="
M42.836983,172.172607 
	C43.277382,172.480133 43.545567,172.963928 43.786110,173.731277 
	C43.393906,173.459503 43.029339,172.904190 42.836983,172.172607 
z"/>
<path fill="#9B9C7F" opacity="1.000000" stroke="none" 
	d="
M34.412643,418.964050 
	C39.740646,407.623230 43.271160,395.748535 42.980675,382.483032 
	C45.550060,382.127289 49.138786,383.024750 49.765896,382.038696 
	C52.399307,377.897980 55.599106,378.581451 59.208759,379.681183 
	C62.964882,380.825531 66.038460,380.087585 67.962265,376.360809 
	C68.492691,380.915955 68.873337,385.497253 69.660889,390.007507 
	C69.853172,391.108673 71.293106,392.702759 72.308167,392.823944 
	C76.275566,393.297546 77.441635,395.886505 78.076927,399.197571 
	C79.289207,405.515808 80.553009,411.824188 81.816711,418.525543 
	C66.187584,418.935577 50.537167,418.956726 34.412643,418.964050 
z"/>
<path fill="#3CB0BA" opacity="1.000000" stroke="none" 
	d="
M186.120178,464.308319 
	C190.091019,464.938904 194.179932,465.911713 198.635834,466.981750 
	C198.156723,467.593628 197.114639,468.719604 196.496964,468.521576 
	C193.020935,467.407410 189.647003,465.974670 186.120178,464.308319 
z"/>
<path fill="#3CB0BA" opacity="1.000000" stroke="none" 
	d="
M181.061951,463.244751 
	C181.447815,463.000580 181.894379,463.012970 182.673492,463.067505 
	C182.378250,463.240204 181.750443,463.370758 181.061951,463.244751 
z"/>
<path fill="#176B1F" opacity="1.000000" stroke="none" 
	d="
M67.948456,376.036224 
	C66.038460,380.087585 62.964882,380.825531 59.208759,379.681183 
	C55.599106,378.581451 52.399307,377.897980 49.765896,382.038696 
	C49.138786,383.024750 45.550060,382.127289 42.943077,382.057831 
	C40.575768,371.447968 43.294956,368.047241 53.930489,367.802338 
	C64.353149,367.562256 66.025337,368.506714 67.948456,376.036224 
z"/>
<path fill="#B9B9B2" opacity="1.000000" stroke="none" 
	d="
M228.014267,378.005066 
	C226.569687,371.535706 225.722534,364.858154 223.555695,358.640503 
	C219.093414,345.836334 220.588211,332.886292 222.679596,320.226990 
	C225.290131,304.425354 229.698120,288.926941 233.110123,273.249756 
	C237.097260,254.930038 240.860901,236.561523 244.673889,218.204269 
	C244.975006,216.754608 245.051956,215.220749 244.982712,213.737717 
	C244.394501,201.139450 243.095352,188.532669 243.311111,175.950790 
	C243.509232,164.398666 244.422211,152.683167 246.815720,141.421249 
	C247.948471,136.091370 253.013718,131.437851 256.778625,126.875061 
	C260.048035,122.912781 263.930786,119.442383 267.657898,115.875206 
	C273.938843,109.863831 281.997040,107.498756 290.178772,106.159050 
	C296.285126,105.159180 300.878937,109.128761 304.659698,113.517609 
	C309.812988,119.499725 312.603180,126.766083 314.832764,134.189957 
	C316.306122,139.095856 316.591827,144.406158 318.416779,149.147614 
	C321.187164,156.345444 325.157349,163.077759 328.001221,170.252228 
	C330.184357,175.759872 331.416412,181.644516 333.076172,187.790497 
	C333.672882,191.573563 334.264893,194.927628 335.002380,198.640747 
	C339.747040,215.395340 343.057373,232.269455 351.877472,247.145126 
	C353.474915,249.839386 356.748291,251.539978 359.601074,254.214447 
	C362.584412,267.901428 365.206268,281.074982 367.847504,294.244598 
	C369.969757,304.826569 372.086487,315.409821 374.262299,325.980835 
	C375.462585,331.812195 376.779602,337.619568 377.800842,342.318817 
	C378.575623,311.354736 379.373138,279.481537 380.170685,247.608368 
	C384.960449,242.612183 389.750214,237.615997 394.878937,232.266235 
	C404.027679,236.015900 404.949493,245.687943 408.609497,253.712524 
	C406.780853,261.425049 404.919464,268.473175 404.114716,275.639954 
	C402.783936,287.491669 401.812775,299.406738 401.327911,311.321075 
	C401.068848,317.686768 398.703979,324.617737 404.277344,330.294434 
	C405.115448,331.148041 404.866821,333.129333 405.004730,334.599854 
	C405.936462,344.533691 404.092896,354.080719 400.488831,363.565063 
	C395.377930,364.596100 390.697662,365.498505 385.633484,366.393921 
	C381.345764,364.531128 377.567322,362.313477 373.507721,360.907623 
	C367.960419,358.986572 362.255707,357.410736 356.508209,356.218750 
	C353.132172,355.518585 349.542175,355.849976 345.922333,355.403656 
	C344.842133,353.419281 343.696533,351.827606 342.968872,350.063568 
	C340.522064,344.132111 338.025269,338.208069 335.927429,332.149689 
	C333.992615,326.562042 332.175781,320.883026 330.960541,315.106781 
	C328.090729,301.465912 325.309967,287.792114 323.067413,274.037994 
	C321.309143,263.254089 320.972931,252.224289 318.956085,241.501007 
	C317.308655,232.741882 314.737518,224.013382 311.315033,215.796509 
	C309.792389,212.140747 305.620453,208.821884 301.851959,207.037933 
	C295.299896,203.936279 290.737427,209.431595 285.889069,212.678772 
	C279.693756,216.828094 279.264648,223.857193 277.391144,230.188858 
	C272.482330,246.778641 267.941071,263.398834 265.684265,280.652161 
	C263.390167,298.190643 264.302399,316.227264 257.951324,333.179932 
	C257.377899,334.710571 257.124084,336.426544 257.054779,338.070465 
	C256.305756,355.836426 255.623505,373.605225 254.580048,391.265015 
	C245.496170,386.772888 236.755219,382.388977 228.014267,378.005066 
z"/>
<path fill="#0F6819" opacity="1.000000" stroke="none" 
	d="
M386.017395,366.400909 
	C390.697662,365.498505 395.377930,364.596100 400.885010,363.673187 
	C415.145020,362.079041 428.578156,360.505402 442.345825,359.100739 
	C445.134308,360.030884 447.588318,360.791992 450.042297,361.553101 
	C454.657684,365.232391 455.205017,370.275604 456.443695,375.799744 
	C459.157837,387.903992 463.782135,399.589111 467.852570,411.367218 
	C468.304047,412.673492 470.221619,413.473114 471.679260,414.990265 
	C471.863007,415.644470 471.826782,415.816071 471.790588,415.987671 
	C464.851471,419.713623 458.212982,424.248901 450.899017,426.965820 
	C441.211548,430.564392 431.038849,432.914459 420.977264,435.408020 
	C418.437805,436.037354 415.527985,435.172302 412.394043,434.537964 
	C411.957642,433.696381 411.915588,433.310883 411.927826,432.520721 
	C414.714233,420.683411 410.192261,410.153168 406.022888,400.387604 
	C401.593048,390.012054 394.021149,380.985779 387.922699,371.306458 
	C387.004730,369.849457 386.638733,368.044769 386.017395,366.400909 
z"/>
<path fill="#ACAD9B" opacity="1.000000" stroke="none" 
	d="
M442.011322,358.931732 
	C428.578156,360.505402 415.145020,362.079041 401.315674,363.544556 
	C404.092896,354.080719 405.936462,344.533691 405.004730,334.599854 
	C404.866821,333.129333 405.115448,331.148041 404.277344,330.294434 
	C398.703979,324.617737 401.068848,317.686768 401.327911,311.321075 
	C401.812775,299.406738 402.783936,287.491669 404.114716,275.639954 
	C404.919464,268.473175 406.780853,261.425049 408.558044,254.130737 
	C409.354065,263.778564 413.585480,272.354492 417.437073,281.176483 
	C426.630219,302.233185 438.216980,322.351990 442.859100,345.809814 
	C442.416046,350.629395 442.213684,354.780548 442.011322,358.931732 
z"/>
<path fill="#D0D0CC" opacity="1.000000" stroke="none" 
	d="
M379.811523,247.726776 
	C379.373138,279.481537 378.575623,311.354736 377.800842,342.318817 
	C376.779602,337.619568 375.462585,331.812195 374.262299,325.980835 
	C372.086487,315.409821 369.969757,304.826569 367.847504,294.244598 
	C365.206268,281.074982 362.584412,267.901428 359.948425,254.287781 
	C365.222198,256.020691 369.710754,254.475830 373.951569,251.093216 
	C375.599976,249.778381 377.608093,248.914490 379.811523,247.726776 
z"/>
<path fill="#AEB5A7" opacity="1.000000" stroke="none" 
	d="
M442.345825,359.100739 
	C442.213684,354.780548 442.416046,350.629395 442.863617,346.205414 
	C445.364410,350.888336 447.619965,355.844055 449.958923,361.176453 
	C447.588318,360.791992 445.134308,360.030884 442.345825,359.100739 
z"/>
<path fill="#42B4BE" opacity="1.000000" stroke="none" 
	d="
M472.013367,416.039612 
	C471.826782,415.816071 471.863007,415.644470 471.935242,415.212341 
	C471.971252,414.951843 472.403229,414.848022 472.625061,414.843323 
	C472.830200,415.063660 472.813538,415.288635 472.740540,415.848999 
	C472.684204,416.184357 472.236176,416.091583 472.013367,416.039612 
z"/>
<path fill="#B9B9B2" opacity="1.000000" stroke="none" 
	d="
M155.988007,205.942642 
	C161.626892,204.163864 165.502853,206.412186 168.522736,211.164337 
	C169.285049,212.363937 171.450867,212.671646 173.312714,213.390152 
	C174.397156,218.820053 175.427872,224.229233 175.803329,229.683517 
	C176.179703,235.151413 175.536392,240.696518 176.015991,246.148315 
	C176.479538,251.417450 178.000290,256.584442 178.708282,261.843262 
	C179.945938,271.036133 181.223434,280.242004 181.914688,289.485016 
	C182.633194,299.092346 182.570587,308.756439 183.145508,318.378052 
	C183.220261,319.628998 184.921677,320.940399 186.112976,321.931244 
	C188.057098,323.548309 190.828812,324.499969 192.161926,326.469696 
	C202.382980,341.571777 210.441422,357.645081 212.535706,376.443573 
	C206.414902,376.897736 200.731277,376.913269 195.077560,376.817352 
	C195.107468,376.705902 195.152679,376.479584 195.114777,376.073303 
	C193.930252,370.873962 193.592590,365.677551 191.450409,361.380859 
	C188.106323,354.673462 183.278168,348.815033 175.144913,347.411072 
	C173.489166,347.125244 170.997849,347.113586 170.051407,348.094513 
	C166.421631,351.856476 163.011002,355.895416 159.995544,360.167633 
	C156.382248,365.286896 153.256500,370.750275 149.919617,376.064606 
	C143.971237,369.960022 138.022873,363.855438 131.975677,357.428589 
	C133.534576,349.882843 135.214249,342.664307 136.845459,335.434875 
	C140.165329,320.721283 143.245850,305.949310 146.851410,291.306366 
	C148.716690,283.731079 151.578720,276.405640 153.809219,268.913361 
	C154.509308,266.561737 154.927658,264.036987 154.947830,261.587128 
	C155.056946,248.329285 154.911209,235.069153 155.046478,221.811783 
	C155.098816,216.681778 155.658707,211.556961 155.988007,205.942642 
z"/>
<path fill="#1E8329" opacity="1.000000" stroke="none" 
	d="
M411.873505,432.925385 
	C411.915588,433.310883 411.957642,433.696381 412.019104,434.370514 
	C407.890472,437.364868 403.742462,440.070587 399.283936,442.472107 
	C399.015442,434.053253 394.847778,428.468842 386.487305,424.956665 
	C381.044006,422.670013 375.350769,420.880920 373.097443,414.122406 
	C372.382141,411.976898 368.961609,409.515991 366.625580,409.349213 
	C358.594971,408.775879 350.494934,409.088135 342.425812,409.264709 
	C341.540955,409.284119 340.544189,410.491425 339.837128,411.344757 
	C333.607208,418.864105 326.246490,424.910889 317.501495,429.352509 
	C315.573792,430.331604 313.915649,432.201385 312.624146,434.011200 
	C306.936554,441.981506 308.752686,450.539520 310.577087,459.096802 
	C306.892731,458.497559 303.563049,458.123627 300.381500,457.225189 
	C290.521240,454.440643 280.826569,450.993347 270.869263,448.644104 
	C248.409180,443.345154 229.189194,432.944183 213.304321,415.902008 
	C206.331604,408.421234 196.498459,405.914917 186.316162,407.977722 
	C174.939926,410.282379 163.602371,412.958679 152.476593,416.246826 
	C146.415558,418.038116 140.828384,421.432831 134.632996,424.116089 
	C131.643585,424.753754 129.048660,425.379791 126.453735,426.005798 
	C124.232872,425.978699 122.012024,425.951599 119.458542,425.827454 
	C124.095406,421.777344 124.329788,420.176300 120.214256,415.743408 
	C115.479111,410.643188 115.311867,404.038147 115.224823,397.926575 
	C115.105843,389.572540 116.492310,381.197113 117.263687,372.489410 
	C118.269440,372.758453 119.131920,372.719849 119.399261,373.099915 
	C126.796867,383.616058 137.332062,381.650909 147.726944,380.314941 
	C149.207703,380.124603 150.708496,380.090210 153.012283,379.896606 
	C167.306183,375.045776 181.196945,375.359467 195.152679,376.479584 
	C195.152679,376.479584 195.107468,376.705902 195.132477,377.169464 
	C196.051346,378.542114 196.779968,379.870361 197.863739,380.297577 
	C214.678650,386.925842 229.918915,397.674683 248.612549,399.468933 
	C252.018936,399.795898 254.104691,399.546936 254.972946,395.985138 
	C255.237717,394.899017 255.813721,393.888794 256.595551,392.905884 
	C266.252747,396.498932 275.537231,400.097900 284.907593,403.457306 
	C285.859436,403.798553 287.904724,403.074493 288.469757,402.209412 
	C295.818909,390.957428 303.461365,380.171509 313.224365,370.585815 
	C322.447357,361.530426 333.138184,358.138641 345.042603,356.526978 
	C349.674561,359.819214 353.934509,363.728180 358.946014,365.451385 
	C366.310333,367.983582 372.691803,371.563354 378.523895,376.616730 
	C384.391785,381.701141 390.716980,386.255829 396.636963,391.283722 
	C397.815277,392.284546 399.084167,394.933716 398.571442,395.868011 
	C396.304108,399.999817 399.040985,403.171143 399.836487,406.742249 
	C401.146942,412.625122 403.279327,418.597321 403.097931,424.471100 
	C402.871796,431.794647 404.577972,434.318176 411.873505,432.925385 
z"/>
<path fill="#ABAD9B" opacity="1.000000" stroke="none" 
	d="
M195.114777,376.073303 
	C181.196945,375.359467 167.306183,375.045776 153.455673,379.876984 
	C152.130585,378.835419 151.174362,377.726440 150.068878,376.341064 
	C153.256500,370.750275 156.382248,365.286896 159.995544,360.167633 
	C163.011002,355.895416 166.421631,351.856476 170.051407,348.094513 
	C170.997849,347.113586 173.489166,347.125244 175.144913,347.411072 
	C183.278168,348.815033 188.106323,354.673462 191.450409,361.380859 
	C193.592590,365.677551 193.930252,370.873962 195.114777,376.073303 
z"/>
<path fill="#4EC7FF" opacity="1.000000" stroke="none" 
	d="
M402.955505,138.758057 
	C402.430908,138.941879 401.916962,138.869705 401.034180,138.661560 
	C401.432251,138.517731 402.199219,138.509888 402.955505,138.758057 
z"/>
<path fill="#4EC7FF" opacity="1.000000" stroke="none" 
	d="
M359.088776,110.759933 
	C358.931641,110.351265 358.958771,109.729263 359.190613,109.012703 
	C359.354584,109.460968 359.313812,110.003784 359.088776,110.759933 
z"/>
<path fill="#3FC4FE" opacity="1.000000" stroke="none" 
	d="
M178.932404,210.283295 
	C178.979538,208.499359 179.079895,207.150101 179.662521,205.398590 
	C191.037537,204.664246 201.936752,204.462967 212.819107,203.921982 
	C216.179520,203.754944 219.493958,202.662430 222.829468,201.993652 
	C221.147171,214.390305 219.491745,226.790695 217.770569,239.181931 
	C216.979355,244.878036 216.059174,250.556259 214.625793,256.642761 
	C204.428329,259.414337 194.804932,260.533478 185.190445,256.987854 
	C183.122162,241.564545 181.053894,226.141251 178.932404,210.283295 
z"/>
<path fill="#37C0FF" opacity="1.000000" stroke="none" 
	d="
M222.916367,201.580780 
	C219.493958,202.662430 216.179520,203.754944 212.819107,203.921982 
	C201.936752,204.462967 191.037537,204.664246 179.691910,204.993042 
	C179.098221,204.374481 178.957413,203.759216 178.879227,202.442703 
	C178.749985,200.524384 178.558136,199.307327 178.366272,198.090271 
	C178.342178,197.601227 178.318100,197.112183 178.433533,196.165924 
	C178.639313,195.478073 178.593475,195.268341 178.435501,195.079498 
	C178.305954,194.673996 178.176407,194.268509 178.019302,193.544540 
	C179.049911,190.151520 180.108078,187.076950 181.201782,183.899170 
	C190.164368,184.025757 192.920013,182.131775 195.955521,173.775665 
	C196.293045,172.846497 197.133270,171.862854 198.003754,171.401962 
	C204.835587,167.784622 205.623978,164.847549 201.108475,158.337860 
	C209.725845,158.692764 218.494553,159.368713 227.749695,160.067200 
	C227.045105,168.241486 225.762283,176.381210 224.695068,184.549103 
	C223.973953,190.068176 223.556549,195.626907 222.916367,201.580780 
z"/>
<path fill="#4ACAFE" opacity="1.000000" stroke="none" 
	d="
M185.135620,257.421570 
	C194.804932,260.533478 204.428329,259.414337 214.443542,257.013184 
	C214.201797,263.367920 213.765701,269.779144 212.897171,276.131226 
	C211.285156,287.920654 208.237213,299.350800 203.773010,310.405060 
	C202.092636,314.565979 200.763474,314.809235 196.879700,312.458862 
	C190.967346,308.880890 189.014282,303.170135 188.371658,297.042236 
	C187.004837,284.008209 186.147171,270.920776 185.135620,257.421570 
z"/>
<path fill="#279933" opacity="1.000000" stroke="none" 
	d="
M256.247192,392.843811 
	C255.813721,393.888794 255.237717,394.899017 254.972946,395.985138 
	C254.104691,399.546936 252.018936,399.795898 248.612549,399.468933 
	C229.918915,397.674683 214.678650,386.925842 197.863739,380.297577 
	C196.779968,379.870361 196.051346,378.542114 195.102570,377.280914 
	C200.731277,376.913269 206.414902,376.897736 212.566681,376.838257 
	C217.744003,377.196289 222.453156,377.598206 227.588287,378.002625 
	C236.755219,382.388977 245.496170,386.772888 254.718277,391.473022 
	C255.548676,392.140778 255.897919,392.492310 256.247192,392.843811 
z"/>
<path fill="#0E6819" opacity="1.000000" stroke="none" 
	d="
M310.999542,459.082184 
	C308.752686,450.539520 306.936554,441.981506 312.624146,434.011200 
	C313.915649,432.201385 315.573792,430.331604 317.501495,429.352509 
	C326.246490,424.910889 333.607208,418.864105 339.837128,411.344757 
	C340.544189,410.491425 341.540955,409.284119 342.425812,409.264709 
	C350.494934,409.088135 358.594971,408.775879 366.625580,409.349213 
	C368.961609,409.515991 372.382141,411.976898 373.097443,414.122406 
	C375.350769,420.880920 381.044006,422.670013 386.487305,424.956665 
	C394.847778,428.468842 399.015442,434.053253 398.970062,442.597870 
	C395.944580,449.857941 388.804840,451.195251 383.308014,454.705048 
	C380.660645,456.395416 377.900696,457.953308 375.054993,459.277435 
	C371.937500,460.728058 368.729004,462.062469 365.440247,463.046997 
	C360.548370,464.511505 355.600189,466.367371 350.586334,466.698029 
	C344.377991,467.107483 338.078003,466.128113 331.111450,465.551453 
	C325.278076,463.895660 320.150848,462.437103 314.776245,460.773987 
	C313.352417,460.073669 312.175964,459.577942 310.999542,459.082184 
z"/>
<path fill="#B7B9B1" opacity="1.000000" stroke="none" 
	d="
M310.577087,459.096802 
	C312.175964,459.577942 313.352417,460.073669 314.482178,461.004639 
	C313.157440,461.424500 311.872864,461.486755 310.602325,461.380859 
	C304.103790,460.839264 297.608856,460.254272 291.112671,459.684509 
	C280.216675,457.502106 269.350464,455.154083 258.415497,453.188507 
	C249.271149,451.544830 240.046371,450.348450 230.243286,448.517120 
	C228.579453,447.720245 227.532898,447.057037 226.479172,447.045471 
	C209.145508,446.855499 192.028030,444.867767 175.149521,440.930450 
	C167.113678,439.055908 158.800583,437.799164 151.210983,434.766357 
	C145.334656,432.418121 140.387634,427.744385 135.027496,424.104401 
	C140.828384,421.432831 146.415558,418.038116 152.476593,416.246826 
	C163.602371,412.958679 174.939926,410.282379 186.316162,407.977722 
	C196.498459,405.914917 206.331604,408.421234 213.304321,415.902008 
	C229.189194,432.944183 248.409180,443.345154 270.869263,448.644104 
	C280.826569,450.993347 290.521240,454.440643 300.381500,457.225189 
	C303.563049,458.123627 306.892731,458.497559 310.577087,459.096802 
z"/>
<path fill="#CACECA" opacity="1.000000" stroke="none" 
	d="
M134.632996,424.116089 
	C140.387634,427.744385 145.334656,432.418121 151.210983,434.766357 
	C158.800583,437.799164 167.113678,439.055908 175.149521,440.930450 
	C192.028030,444.867767 209.145508,446.855499 226.479172,447.045471 
	C227.532898,447.057037 228.579453,447.720245 229.798828,448.418488 
	C218.362854,449.660400 206.762634,451.131256 195.149887,451.237823 
	C188.982925,451.294495 182.752594,449.161346 176.623337,447.710510 
	C158.859238,443.505737 143.645706,433.218414 126.660858,426.326019 
	C129.048660,425.379791 131.643585,424.753754 134.632996,424.116089 
z"/>
<path fill="#AEC0BC" opacity="1.000000" stroke="none" 
	d="
M291.475403,459.832428 
	C297.608856,460.254272 304.103790,460.839264 310.602325,461.380859 
	C311.872864,461.486755 313.157440,461.424500 314.729584,461.209229 
	C320.150848,462.437103 325.278076,463.895660 330.682800,465.567688 
	C317.919586,463.847534 304.878876,461.913940 291.475403,459.832428 
z"/>
<path fill="#3FC4FE" opacity="1.000000" stroke="none" 
	d="
M178.260193,198.459381 
	C178.558136,199.307327 178.749985,200.524384 178.931824,202.129395 
	C178.665924,201.287720 178.410019,200.058090 178.260193,198.459381 
z"/>
<path fill="#3FC4FE" opacity="1.000000" stroke="none" 
	d="
M178.386368,195.287628 
	C178.593475,195.268341 178.639313,195.478073 178.516739,195.807037 
	C178.460449,195.905350 178.337234,195.495773 178.386368,195.287628 
z"/>
<path fill="#ADAD9C" opacity="1.000000" stroke="none" 
	d="
M256.595520,392.905884 
	C255.897919,392.492310 255.548676,392.140778 255.061218,391.581238 
	C255.623505,373.605225 256.305756,355.836426 257.054779,338.070465 
	C257.124084,336.426544 257.377899,334.710571 257.951324,333.179932 
	C264.302399,316.227264 263.390167,298.190643 265.684265,280.652161 
	C267.941071,263.398834 272.482330,246.778641 277.391144,230.188858 
	C279.264648,223.857193 279.693756,216.828094 285.889069,212.678772 
	C290.737427,209.431595 295.299896,203.936279 301.851959,207.037933 
	C305.620453,208.821884 309.792389,212.140747 311.315033,215.796509 
	C314.737518,224.013382 317.308655,232.741882 318.956085,241.501007 
	C320.972931,252.224289 321.309143,263.254089 323.067413,274.037994 
	C325.309967,287.792114 328.090729,301.465912 330.960541,315.106781 
	C332.175781,320.883026 333.992615,326.562042 335.927429,332.149689 
	C338.025269,338.208069 340.522064,344.132111 342.968872,350.063568 
	C343.696533,351.827606 344.842133,353.419281 345.661194,355.514587 
	C345.353027,356.014923 345.179871,356.090607 345.006683,356.166321 
	C333.138184,358.138641 322.447357,361.530426 313.224365,370.585815 
	C303.461365,380.171509 295.818909,390.957428 288.469757,402.209412 
	C287.904724,403.074493 285.859436,403.798553 284.907593,403.457306 
	C275.537231,400.097900 266.252747,396.498932 256.595520,392.905884 
z"/>
<path fill="#279833" opacity="1.000000" stroke="none" 
	d="
M345.042603,356.526978 
	C345.179871,356.090607 345.353027,356.014923 345.787292,355.828308 
	C349.542175,355.849976 353.132172,355.518585 356.508209,356.218750 
	C362.255707,357.410736 367.960419,358.986572 373.507721,360.907623 
	C377.567322,362.313477 381.345764,364.531128 385.633484,366.393921 
	C386.638733,368.044769 387.004730,369.849457 387.922699,371.306458 
	C394.021149,380.985779 401.593048,390.012054 406.022888,400.387604 
	C410.192261,410.153168 414.714233,420.683411 411.927826,432.520721 
	C404.577972,434.318176 402.871796,431.794647 403.097931,424.471100 
	C403.279327,418.597321 401.146942,412.625122 399.836487,406.742249 
	C399.040985,403.171143 396.304108,399.999817 398.571442,395.868011 
	C399.084167,394.933716 397.815277,392.284546 396.636963,391.283722 
	C390.716980,386.255829 384.391785,381.701141 378.523895,376.616730 
	C372.691803,371.563354 366.310333,367.983582 358.946014,365.451385 
	C353.934509,363.728180 349.674561,359.819214 345.042603,356.526978 
z"/>
</svg>